<?xml version="1.0" encoding="UTF-8"?>
<svg width="37px" height="37px" viewBox="0 0 37 37" version="1.1" xmlns="http://www.w3.org/2000/svg" xmlns:xlink="http://www.w3.org/1999/xlink">
    <!-- Generator: sketchtool 51.3 (57544) - http://www.bohemiancoding.com/sketch -->
    <title>8D2FB66F-B5D9-474D-8C92-A7864934EE22</title>
    <desc>Created with sketchtool.</desc>
    <defs></defs>
    <g id="LITA" stroke="none" stroke-width="1" fill="none" fill-rule="evenodd">
        <g id="0-0-Home-MBS" transform="translate(-51.000000, -588.000000)">
            <g id="Nav">
                <g id="nav" transform="translate(0.000000, 110.000000)">
                    <g id="Nvl-cat" transform="translate(33.000000, 479.000000)">
                        <g id="1" transform="translate(18.000000, 0.000000)">
                            <g id="Page-1" transform="translate(14.000000, 0.000000)">
                                <path d="M1.46666667,6.16 C1.46666667,6.16 1.46666667,7.33333333 2.01666667,7.33333333 C2.56666667,7.33333333 2.56666667,8.50666667 2.56666667,9.09333333 C2.56666667,9.68 2.56666667,10.2666667 3.66666667,10.2666667 C3.66666667,10.2666667 3.97576667,9.71637333 3.90701667,9.12970667 C3.83826667,8.54304 4.21666667,8.50666667 4.21666667,8.50666667 L6.41666667,8.50666667 C7.51666667,8.50666667 7.51666667,7.33333333 8.06666667,6.74666667 C8.61666667,6.16 10.2666667,5.57333333 10.2666667,4.98666667 C10.2666667,4.4 9.71666667,3.22666667 8.61666667,3.81333333 C7.51666667,4.4 8.06666667,5.57333333 7.51666667,4.98666667 C6.96666667,4.4 6.41666667,3.81333333 6.96666667,3.22666667 C7.51666667,2.64 6.41666667,1.46666667 6.41666667,1.46666667" id="Stroke-3" stroke="#00965E" stroke-width="1.3"></path>
                                <path d="M7.7115067,16.3182916 C8.32133929,16.9495926 8.32133929,16.9495926 8.32133929,18.2121944 C8.32133929,19.4747963 8.93117188,22 9.54100447,22 C9.54100447,22 9.54100447,20.1060972 10.1508371,19.4747963 C10.7606696,18.8434953 11.9803348,18.2121944 11.9803348,17.5808935 C11.9803348,16.9495926 12.5901674,16.9495926 12.5901674,15.6869907 C12.5901674,14.4243888 13.2,15.0556898 13.2,14.4243888 C13.2,13.7930879 11.9803348,13.161787 11.3705022,13.161787 C10.7606696,13.161787 10.1508371,12.530486 9.54100447,11.8991851 C9.54100447,11.8991851 8.35914891,11.3865688 7.7115067,10.9913744 C7.0638645,10.5968113 6.18692523,9.88659774 6.11069616,10.5178987 C6.03446709,11.1491996 5.80577987,13.1226463 5.88200894,13.596122 C5.95823801,14.0689664 6.60649005,14.8189519 6.94921597,15.2924276 C7.29255172,15.7659033 7.7115067,16.3182916 7.7115067,16.3182916 Z" id="Stroke-5" stroke="#00965E" stroke-width="1.3"></path>
                                <path d="M22,14.6666667 L20.5333333,14.0883913 C20.5333333,14.0883913 19.8,12.9318405 19.8,12.3535651 C19.8,11.7752898 19.0666667,12.3535651 17.6,12.3535651 C16.1333333,12.3535651 16.1333333,11.7752898 16.1333333,10.618739 L16.1333333,8.88391286 C16.1333333,8.30563748 17.6,7.72736209 17.6,7.72736209 C17.6,7.72736209 16.8666667,6.57081133 17.6,5.99253595 C18.3333333,5.41426057 18.3333333,4.83598519 18.3333333,4.83598519 C18.3333333,4.83598519 18.7154,4.33866836 19.5330667,4.40632658" id="Stroke-7" stroke="#00965E" stroke-width="1.3"></path>
                                <path d="M22,11 C22,17.0750556 17.0744444,22 11,22 C4.92494444,22 0,17.0750556 0,11 C0,4.92555556 4.92494444,0 11,0 C17.0744444,0 22,4.92555556 22,11 Z" id="Stroke-1" stroke="#00915A" stroke-width="1.5"></path>
                            </g>
                            <g id="Page-1" transform="translate(0.000000, 22.000000)" stroke="#FFFFFF" stroke-width="1.2">
                                <path d="M0,0.00533347277 L7.08383234,0.00533347277 C7.08383234,0.00533347277 9.38423154,-0.128886369 10.757984,0.949309387 C12.1312375,2.02750514 20.9481038,8.7678925 20.9481038,8.7678925 L25.6362275,8.7678925 C25.6362275,8.7678925 27.9680639,8.63311803 28,11.0257808 C27.9680639,12.710739 26.2749501,12.9808426 26.2749501,12.9808426 L17.498004,12.9808426 C17.498004,12.9808426 15.261976,13.2503915 13.2175649,11.7673177 C11.1731537,10.2842439 7.53143713,7.25098644 7.53143713,7.25098644 L0.159680639,7.25098644" id="Stroke-1"></path>
                                <path d="M14,7.22222222 C14,7.22222222 17.5810141,11.8868395 21,9.36142775" id="Stroke-3" stroke-linecap="round"></path>
                            </g>
                        </g>
                    </g>
                </g>
            </g>
        </g>
    </g>
</svg>