<svg xmlns="http://www.w3.org/2000/svg" xmlns:xlink="http://www.w3.org/1999/xlink" width="19"
     height="19" viewBox="0 0 19 19">
    <defs>
        <path id="a" d="M0 .006h18.994v18.992H0z"/>
    </defs>
    <g fill="none" fill-rule="evenodd">
        <path d="M-4-4h27v27H-4z"/>
        <g>
            <mask id="b" fill="#fff">
                <use xlink:href="#a"/>
            </mask>
            <path fill="#FFF"
                  d="M9.497.006c-2.58 0-2.903.01-3.916.057-1.01.046-1.7.207-2.305.442A4.655 4.655 0 0 0 1.594 1.6 4.655 4.655 0 0 0 .499 3.282C.264 3.886.103 4.577.057 5.587.011 6.6 0 6.924 0 9.503c0 2.58.01 2.903.057 3.916.046 1.01.207 1.7.442 2.305a4.655 4.655 0 0 0 1.095 1.682 4.656 4.656 0 0 0 1.682 1.095c.604.235 1.295.396 2.305.442 1.013.046 1.337.057 3.916.057 2.58 0 2.903-.01 3.916-.057 1.01-.046 1.7-.207 2.305-.442a4.656 4.656 0 0 0 1.682-1.095 4.656 4.656 0 0 0 1.095-1.682c.235-.604.396-1.295.442-2.305.046-1.013.057-1.337.057-3.916 0-2.58-.01-2.903-.057-3.916-.046-1.01-.207-1.7-.442-2.305A4.656 4.656 0 0 0 17.4 1.6 4.655 4.655 0 0 0 15.718.505C15.114.27 14.423.109 13.413.063 12.4.017 12.076.006 9.497.006zm0 1.711c2.536 0 2.836.01 3.838.056.926.042 1.428.196 1.763.327.443.172.76.378 1.092.71.332.332.538.649.71 1.092.13.335.285.837.327 1.763.046 1.002.056 1.302.056 3.838s-.01 2.836-.056 3.838c-.042.926-.196 1.428-.327 1.763-.172.443-.378.76-.71 1.092a2.942 2.942 0 0 1-1.092.71c-.335.13-.837.285-1.763.327-1.002.046-1.302.056-3.838.056s-2.836-.01-3.838-.056c-.926-.042-1.428-.196-1.763-.327a2.942 2.942 0 0 1-1.092-.71 2.943 2.943 0 0 1-.71-1.092c-.13-.335-.285-.837-.327-1.763-.046-1.002-.056-1.302-.056-3.838s.01-2.836.056-3.838c.042-.926.196-1.428.327-1.763.172-.443.378-.76.71-1.092a2.942 2.942 0 0 1 1.092-.71c.335-.13.837-.285 1.763-.327 1.002-.046 1.302-.056 3.838-.056z"
                  mask="url(#b)"/>
        </g>
        <path fill="#FFF"
              d="M9.497 12.669a3.166 3.166 0 1 1 0-6.332 3.166 3.166 0 0 1 0 6.332zm0-8.043a4.877 4.877 0 1 0 0 9.754 4.877 4.877 0 0 0 0-9.754zM15.706 4.433a1.14 1.14 0 1 1-2.28 0 1.14 1.14 0 0 1 2.28 0"/>
    </g>
</svg>