<svg xmlns="http://www.w3.org/2000/svg" width="20" height="19" viewBox="0 0 20 19">
    <g fill="none" fill-rule="evenodd">
        <path fill-rule="nonzero" d="M-4-4h27v27H-4z"/>
        <path fill="#FFFFFE"
              d="M16.518 16.19h-2.873v-4.41c0-1.05-.02-2.403-1.494-2.403-1.496 0-1.726 1.145-1.726 2.328v4.486H7.553V7.123h2.757v1.239h.039c.384-.713 1.322-1.464 2.72-1.464 2.912 0 3.45 1.878 3.45 4.319v4.974zM4.312 5.885c-.921 0-1.667-.733-1.667-1.635 0-.901.746-1.633 1.667-1.633.92 0 1.667.732 1.667 1.633 0 .902-.747 1.635-1.667 1.635zM2.874 16.19h2.875V7.123H2.874v9.068zM17.95 0H1.43C.642 0 0 .613 0 1.37v16.26C0 18.385.641 19 1.43 19h16.52c.791 0 1.435-.614 1.435-1.37V1.37c0-.757-.644-1.37-1.435-1.37z"/>
    </g>
</svg>