<svg xmlns="http://www.w3.org/2000/svg" width="23" height="19" viewBox="0 0 23 19">
    <g fill="none" fill-rule="evenodd">
        <path d="M-2-4h27v27H-2z"/>
        <path fill="#FFF"
              d="M7.396 19C3.95 19 .81 17.546 0 16.923c0 0 3.85.727 6.787-2.073-1.518-.518-3.342-.933-4.152-3.318.91.207.91.207 1.823-.103C2.937 10.704 1.621 9.562.81 6.763c.811.414 1.622.621 2.23.621C1.62 5.829.203 3.654 1.518.956c.914.831 4.967 5.288 9.731 4.873 0-2.28.708-4.25 2.329-5.184 1.621-.934 4.359-1.037 5.674.935 1.047.552 2.838.415 3.748 0-.405.83-1.824 2.696-2.532 3.213C20.568 5.622 19.86 19 7.396 19z"/>
    </g>
</svg>