<svg xmlns="http://www.w3.org/2000/svg" width="27" height="19" viewBox="0 0 27 19">
    <g fill="none" fill-rule="evenodd">
        <path d="M0-4h27v27H0z"/>
        <path fill="#FFF"
              d="M11.713 13.004l-.002-7.59 7.296 3.808-7.294 3.782zM26.73 4.099s-.264-1.861-1.073-2.682C24.63.342 23.479.336 22.952.273 19.173 0 13.506 0 13.506 0h-.012S7.827 0 4.048.273C3.521.336 2.37.342 1.343 1.417.533 2.237.27 4.099.27 4.099S0 6.285 0 8.47v2.049c0 2.187.27 4.372.27 4.372s.264 1.862 1.073 2.681C2.37 18.65 3.72 18.616 4.32 18.73c2.16.207 9.18.271 9.18.271s5.673-.008 9.452-.281c.527-.063 1.678-.07 2.705-1.146.81-.819 1.073-2.68 1.073-2.68s.27-2.186.27-4.373V8.471c0-2.186-.27-4.372-.27-4.372z"/>
    </g>
</svg>